<mxfile host="app.diagrams.net" modified="2024-06-28T10:01:10.229Z" agent="Mozilla/5.0 (Windows NT 10.0; Win64; x64) AppleWebKit/537.36 (KHTML, like Gecko) Chrome/102.0.0.0 Safari/537.36" etag="yjIaWKi9IxkgBw2eaIkP" version="24.6.2" type="device">
  <diagram name="Page-1" id="JPYfVnMEt2KLxvOihmUX">
    <mxGraphModel dx="794" dy="462" grid="1" gridSize="10" guides="1" tooltips="1" connect="1" arrows="1" fold="1" page="1" pageScale="1" pageWidth="850" pageHeight="1100" math="0" shadow="0">
      <root>
        <mxCell id="0" />
        <mxCell id="1" parent="0" />
        <mxCell id="Fpk-bWriLDE7bLDY650C-2" value="Amazon S3" style="sketch=0;outlineConnect=0;fontColor=#232F3E;gradientColor=none;strokeColor=#ffffff;fillColor=#232F3E;dashed=0;verticalLabelPosition=middle;verticalAlign=bottom;align=center;html=1;whiteSpace=wrap;fontSize=10;fontStyle=1;spacing=3;shape=mxgraph.aws4.productIcon;prIcon=mxgraph.aws4.s3;" vertex="1" parent="1">
          <mxGeometry x="150" y="40" width="80" height="100" as="geometry" />
        </mxCell>
        <mxCell id="Fpk-bWriLDE7bLDY650C-3" value="Amazon CloudWatch" style="sketch=0;outlineConnect=0;fontColor=#232F3E;gradientColor=none;strokeColor=#ffffff;fillColor=#232F3E;dashed=0;verticalLabelPosition=middle;verticalAlign=bottom;align=center;html=1;whiteSpace=wrap;fontSize=10;fontStyle=1;spacing=3;shape=mxgraph.aws4.productIcon;prIcon=mxgraph.aws4.cloudwatch;" vertex="1" parent="1">
          <mxGeometry x="330" y="40" width="80" height="110" as="geometry" />
        </mxCell>
        <mxCell id="Fpk-bWriLDE7bLDY650C-4" value="banking-logs" style="sketch=0;outlineConnect=0;fontColor=#232F3E;gradientColor=none;strokeColor=#ffffff;fillColor=#232F3E;dashed=0;verticalLabelPosition=middle;verticalAlign=bottom;align=center;html=1;whiteSpace=wrap;fontSize=10;fontStyle=1;spacing=3;shape=mxgraph.aws4.productIcon;prIcon=mxgraph.aws4.dynamodb;" vertex="1" parent="1">
          <mxGeometry x="670" y="161" width="80" height="110" as="geometry" />
        </mxCell>
        <mxCell id="Fpk-bWriLDE7bLDY650C-5" value="get logs" style="outlineConnect=0;dashed=0;verticalLabelPosition=bottom;verticalAlign=top;align=center;html=1;shape=mxgraph.aws3.lambda_function;fillColor=#F58534;gradientColor=none;" vertex="1" parent="1">
          <mxGeometry x="490" y="340" width="69" height="72" as="geometry" />
        </mxCell>
        <mxCell id="Fpk-bWriLDE7bLDY650C-25" style="edgeStyle=orthogonalEdgeStyle;rounded=0;orthogonalLoop=1;jettySize=auto;html=1;exitX=1;exitY=0.5;exitDx=0;exitDy=0;exitPerimeter=0;" edge="1" parent="1" source="Fpk-bWriLDE7bLDY650C-6" target="Fpk-bWriLDE7bLDY650C-4">
          <mxGeometry relative="1" as="geometry" />
        </mxCell>
        <mxCell id="Fpk-bWriLDE7bLDY650C-32" style="edgeStyle=orthogonalEdgeStyle;rounded=0;orthogonalLoop=1;jettySize=auto;html=1;" edge="1" parent="1" source="Fpk-bWriLDE7bLDY650C-6" target="Fpk-bWriLDE7bLDY650C-2">
          <mxGeometry relative="1" as="geometry" />
        </mxCell>
        <mxCell id="Fpk-bWriLDE7bLDY650C-6" value="generate-report&lt;div&gt;&lt;br&gt;&lt;/div&gt;" style="outlineConnect=0;dashed=0;verticalLabelPosition=bottom;verticalAlign=top;align=center;html=1;shape=mxgraph.aws3.lambda_function;fillColor=#F58534;gradientColor=none;" vertex="1" parent="1">
          <mxGeometry x="494" y="180" width="69" height="72" as="geometry" />
        </mxCell>
        <mxCell id="Fpk-bWriLDE7bLDY650C-19" value="" style="edgeStyle=orthogonalEdgeStyle;rounded=0;orthogonalLoop=1;jettySize=auto;html=1;" edge="1" parent="1" source="Fpk-bWriLDE7bLDY650C-7" target="Fpk-bWriLDE7bLDY650C-8">
          <mxGeometry relative="1" as="geometry" />
        </mxCell>
        <mxCell id="Fpk-bWriLDE7bLDY650C-7" value="log processor&lt;div&gt;&lt;br&gt;&lt;/div&gt;" style="outlineConnect=0;dashed=0;verticalLabelPosition=bottom;verticalAlign=top;align=center;html=1;shape=mxgraph.aws3.lambda_function;fillColor=#F58534;gradientColor=none;" vertex="1" parent="1">
          <mxGeometry x="490" y="39" width="69" height="72" as="geometry" />
        </mxCell>
        <mxCell id="Fpk-bWriLDE7bLDY650C-8" value="log-history" style="sketch=0;outlineConnect=0;fontColor=#232F3E;gradientColor=none;strokeColor=#ffffff;fillColor=#232F3E;dashed=0;verticalLabelPosition=middle;verticalAlign=bottom;align=center;html=1;whiteSpace=wrap;fontSize=10;fontStyle=1;spacing=3;shape=mxgraph.aws4.productIcon;prIcon=mxgraph.aws4.dynamodb;" vertex="1" parent="1">
          <mxGeometry x="760" y="20" width="80" height="110" as="geometry" />
        </mxCell>
        <mxCell id="Fpk-bWriLDE7bLDY650C-13" value="" style="edgeStyle=orthogonalEdgeStyle;html=1;endArrow=block;elbow=vertical;startArrow=none;endFill=1;strokeColor=#545B64;rounded=0;" edge="1" parent="1">
          <mxGeometry width="100" relative="1" as="geometry">
            <mxPoint x="230" y="80" as="sourcePoint" />
            <mxPoint x="330" y="80" as="targetPoint" />
          </mxGeometry>
        </mxCell>
        <mxCell id="Fpk-bWriLDE7bLDY650C-14" value="upload event" style="text;html=1;align=center;verticalAlign=middle;resizable=0;points=[];autosize=1;strokeColor=none;fillColor=none;" vertex="1" parent="1">
          <mxGeometry x="225" y="38" width="90" height="30" as="geometry" />
        </mxCell>
        <mxCell id="Fpk-bWriLDE7bLDY650C-15" value="" style="edgeStyle=orthogonalEdgeStyle;html=1;endArrow=block;elbow=vertical;startArrow=none;endFill=1;strokeColor=#545B64;rounded=0;" edge="1" parent="1">
          <mxGeometry width="100" relative="1" as="geometry">
            <mxPoint x="410" y="80" as="sourcePoint" />
            <mxPoint x="490" y="80" as="targetPoint" />
          </mxGeometry>
        </mxCell>
        <mxCell id="Fpk-bWriLDE7bLDY650C-16" value="trigger" style="text;html=1;align=center;verticalAlign=middle;resizable=0;points=[];autosize=1;strokeColor=none;fillColor=none;" vertex="1" parent="1">
          <mxGeometry x="415" y="48" width="60" height="30" as="geometry" />
        </mxCell>
        <mxCell id="Fpk-bWriLDE7bLDY650C-21" value="" style="edgeStyle=orthogonalEdgeStyle;html=1;endArrow=block;elbow=vertical;startArrow=none;endFill=1;strokeColor=#545B64;rounded=0;" edge="1" parent="1" source="Fpk-bWriLDE7bLDY650C-7" target="Fpk-bWriLDE7bLDY650C-4">
          <mxGeometry width="100" relative="1" as="geometry">
            <mxPoint x="559" y="94.5" as="sourcePoint" />
            <mxPoint x="610" y="210" as="targetPoint" />
          </mxGeometry>
        </mxCell>
        <mxCell id="Fpk-bWriLDE7bLDY650C-27" value="Api Gateway" style="sketch=0;points=[[0,0,0],[0.25,0,0],[0.5,0,0],[0.75,0,0],[1,0,0],[0,1,0],[0.25,1,0],[0.5,1,0],[0.75,1,0],[1,1,0],[0,0.25,0],[0,0.5,0],[0,0.75,0],[1,0.25,0],[1,0.5,0],[1,0.75,0]];outlineConnect=0;fontColor=#232F3E;fillColor=#8C4FFF;strokeColor=#ffffff;dashed=0;verticalLabelPosition=bottom;verticalAlign=top;align=center;html=1;fontSize=12;fontStyle=0;aspect=fixed;shape=mxgraph.aws4.resourceIcon;resIcon=mxgraph.aws4.api_gateway;" vertex="1" parent="1">
          <mxGeometry x="147" y="334.5" width="83" height="83" as="geometry" />
        </mxCell>
        <mxCell id="Fpk-bWriLDE7bLDY650C-28" style="edgeStyle=orthogonalEdgeStyle;rounded=0;orthogonalLoop=1;jettySize=auto;html=1;" edge="1" parent="1" source="Fpk-bWriLDE7bLDY650C-27" target="Fpk-bWriLDE7bLDY650C-5">
          <mxGeometry relative="1" as="geometry">
            <mxPoint x="480" y="360" as="targetPoint" />
          </mxGeometry>
        </mxCell>
        <mxCell id="Fpk-bWriLDE7bLDY650C-29" value="get logs by query" style="text;html=1;align=center;verticalAlign=middle;resizable=0;points=[];autosize=1;strokeColor=none;fillColor=none;" vertex="1" parent="1">
          <mxGeometry x="285" y="348" width="110" height="30" as="geometry" />
        </mxCell>
        <mxCell id="Fpk-bWriLDE7bLDY650C-34" value="store the report&amp;nbsp;" style="text;html=1;align=center;verticalAlign=middle;resizable=0;points=[];autosize=1;strokeColor=none;fillColor=none;" vertex="1" parent="1">
          <mxGeometry x="295" y="188" width="110" height="30" as="geometry" />
        </mxCell>
        <mxCell id="Fpk-bWriLDE7bLDY650C-35" value="store by category" style="text;html=1;align=center;verticalAlign=middle;resizable=0;points=[];autosize=1;strokeColor=none;fillColor=none;" vertex="1" parent="1">
          <mxGeometry x="575" y="40" width="120" height="30" as="geometry" />
        </mxCell>
        <mxCell id="Fpk-bWriLDE7bLDY650C-36" value="filter data based on fields" style="text;html=1;align=center;verticalAlign=middle;resizable=0;points=[];autosize=1;strokeColor=none;fillColor=none;" vertex="1" parent="1">
          <mxGeometry x="555" y="334.5" width="160" height="30" as="geometry" />
        </mxCell>
        <mxCell id="Fpk-bWriLDE7bLDY650C-38" value="" style="edgeStyle=orthogonalEdgeStyle;html=1;endArrow=block;elbow=vertical;startArrow=block;startFill=1;endFill=1;strokeColor=#545B64;rounded=0;" edge="1" parent="1" target="Fpk-bWriLDE7bLDY650C-4">
          <mxGeometry width="100" relative="1" as="geometry">
            <mxPoint x="563" y="375.5" as="sourcePoint" />
            <mxPoint x="663" y="375.5" as="targetPoint" />
          </mxGeometry>
        </mxCell>
        <mxCell id="Fpk-bWriLDE7bLDY650C-40" style="edgeStyle=orthogonalEdgeStyle;rounded=0;orthogonalLoop=1;jettySize=auto;html=1;entryX=0;entryY=0.5;entryDx=0;entryDy=0;entryPerimeter=0;" edge="1" parent="1" source="Fpk-bWriLDE7bLDY650C-3" target="Fpk-bWriLDE7bLDY650C-6">
          <mxGeometry relative="1" as="geometry" />
        </mxCell>
        <mxCell id="Fpk-bWriLDE7bLDY650C-41" value="on daily" style="text;html=1;align=center;verticalAlign=middle;resizable=0;points=[];autosize=1;strokeColor=none;fillColor=none;" vertex="1" parent="1">
          <mxGeometry x="390" y="150" width="60" height="30" as="geometry" />
        </mxCell>
        <mxCell id="Fpk-bWriLDE7bLDY650C-42" value="get data by date" style="text;html=1;align=center;verticalAlign=middle;resizable=0;points=[];autosize=1;strokeColor=none;fillColor=none;" vertex="1" parent="1">
          <mxGeometry x="555" y="180" width="110" height="30" as="geometry" />
        </mxCell>
      </root>
    </mxGraphModel>
  </diagram>
</mxfile>
